<svg width="1200" height="760" viewBox="0 0 1200 760" fill="none" xmlns="http://www.w3.org/2000/svg">
  <rect width="1200" height="760" fill="#EAF0F9"/>
  <rect x="44" y="48" width="1112" height="664" rx="28" fill="#F8FBFF"/>
  <rect x="86" y="98" width="1028" height="56" rx="20" fill="#1E3A8A"/>
  <rect x="108" y="116" width="164" height="18" rx="9" fill="white" fill-opacity="0.92"/>
  <rect x="308" y="116" width="92" height="18" rx="9" fill="white" fill-opacity="0.44"/>
  <rect x="418" y="116" width="92" height="18" rx="9" fill="white" fill-opacity="0.44"/>
  <rect x="132" y="206" width="820" height="360" rx="24" fill="white" stroke="#D9E4F7"/>
  <rect x="176" y="252" width="486" height="28" rx="14" fill="#C7D7F4"/>
  <rect x="176" y="314" width="440" height="28" rx="14" fill="#C7D7F4"/>
  <rect x="176" y="376" width="504" height="28" rx="14" fill="#C7D7F4"/>
  <rect x="176" y="438" width="392" height="28" rx="14" fill="#C7D7F4"/>
  <rect x="770" y="220" width="258" height="328" rx="24" fill="white" stroke="#D5E2FB"/>
  <rect x="806" y="260" width="156" height="22" rx="11" fill="#0F172A"/>
  <rect x="806" y="308" width="172" height="20" rx="10" fill="#1F6FEB" fill-opacity="0.18"/>
  <rect x="806" y="346" width="164" height="20" rx="10" fill="#1F6FEB" fill-opacity="0.18"/>
  <rect x="806" y="384" width="156" height="20" rx="10" fill="#1F6FEB" fill-opacity="0.18"/>
  <rect x="806" y="432" width="186" height="44" rx="14" fill="#1F6FEB"/>
  <text x="806" y="245" fill="#0F172A" font-family="Arial, sans-serif" font-size="22" font-weight="700">Item menu</text>
  <text x="834" y="460" fill="white" font-family="Arial, sans-serif" font-size="22" font-weight="700">Update Citation Counts</text>
  <text x="132" y="640" fill="#0F172A" font-family="Arial, sans-serif" font-size="34" font-weight="700">Right-click a paper to update citations directly from the item menu.</text>
</svg>
